<svg width="32" height="32" viewBox="0 0 32 32" xmlns="http://www.w3.org/2000/svg">
  <defs><clipPath id="r"><rect width="32" height="32" rx="6" ry="6"/></clipPath></defs>
  <rect width="32" height="32" rx="6" ry="6" fill="#1f3a5f"/>
  <g clip-path="url(#r)" fill="none" stroke="#efe7d7" stroke-width="3.0" stroke-linecap="round">
    <path d="M -33.00,0.00 A 11.00,11.00 0 0 1 -11.00,0.00"/>
    <path d="M -28.05,0.00 A 6.05,6.05 0 0 1 -15.95,0.00"/>
    <path d="M -11.00,0.00 A 11.00,11.00 0 0 1 11.00,0.00"/>
    <path d="M -6.05,0.00 A 6.05,6.05 0 0 1 6.05,0.00"/>
    <path d="M 11.00,0.00 A 11.00,11.00 0 0 1 33.00,0.00"/>
    <path d="M 15.95,0.00 A 6.05,6.05 0 0 1 28.05,0.00"/>
    <path d="M 33.00,0.00 A 11.00,11.00 0 0 1 55.00,0.00"/>
    <path d="M 37.95,0.00 A 6.05,6.05 0 0 1 50.05,0.00"/>
    <path d="M -22.00,11.00 A 11.00,11.00 0 0 1 0.00,11.00"/>
    <path d="M -17.05,11.00 A 6.05,6.05 0 0 1 -4.95,11.00"/>
    <path d="M 0.00,11.00 A 11.00,11.00 0 0 1 22.00,11.00"/>
    <path d="M 4.95,11.00 A 6.05,6.05 0 0 1 17.05,11.00"/>
    <path d="M 22.00,11.00 A 11.00,11.00 0 0 1 44.00,11.00"/>
    <path d="M 26.95,11.00 A 6.05,6.05 0 0 1 39.05,11.00"/>
    <path d="M -33.00,22.00 A 11.00,11.00 0 0 1 -11.00,22.00"/>
    <path d="M -28.05,22.00 A 6.05,6.05 0 0 1 -15.95,22.00"/>
    <path d="M -11.00,22.00 A 11.00,11.00 0 0 1 11.00,22.00"/>
    <path d="M -6.05,22.00 A 6.05,6.05 0 0 1 6.05,22.00"/>
    <path d="M 11.00,22.00 A 11.00,11.00 0 0 1 33.00,22.00"/>
    <path d="M 15.95,22.00 A 6.05,6.05 0 0 1 28.05,22.00"/>
    <path d="M 33.00,22.00 A 11.00,11.00 0 0 1 55.00,22.00"/>
    <path d="M 37.95,22.00 A 6.05,6.05 0 0 1 50.05,22.00"/>
    <path d="M -22.00,33.00 A 11.00,11.00 0 0 1 0.00,33.00"/>
    <path d="M -17.05,33.00 A 6.05,6.05 0 0 1 -4.95,33.00"/>
    <path d="M 0.00,33.00 A 11.00,11.00 0 0 1 22.00,33.00"/>
    <path d="M 4.95,33.00 A 6.05,6.05 0 0 1 17.05,33.00"/>
    <path d="M 22.00,33.00 A 11.00,11.00 0 0 1 44.00,33.00"/>
    <path d="M 26.95,33.00 A 6.05,6.05 0 0 1 39.05,33.00"/>
  </g>
</svg>
