<svg width="64" height="64" viewBox="0 0 64 64" xmlns="http://www.w3.org/2000/svg">
  <defs><clipPath id="r"><rect width="64" height="64" rx="12" ry="12"/></clipPath></defs>
  <rect width="64" height="64" rx="12" ry="12" fill="#1f3a5f"/>
  <g clip-path="url(#r)" fill="none" stroke="#efe7d7" stroke-width="2.6" stroke-linecap="round">
    <path d="M -66.00,0.00 A 22.00,22.00 0 0 1 -22.00,0.00"/>
    <path d="M -57.64,0.00 A 13.64,13.64 0 0 1 -30.36,0.00"/>
    <path d="M -49.72,0.00 A 5.72,5.72 0 0 1 -38.28,0.00"/>
    <path d="M -22.00,0.00 A 22.00,22.00 0 0 1 22.00,0.00"/>
    <path d="M -13.64,0.00 A 13.64,13.64 0 0 1 13.64,0.00"/>
    <path d="M -5.72,0.00 A 5.72,5.72 0 0 1 5.72,0.00"/>
    <path d="M 22.00,0.00 A 22.00,22.00 0 0 1 66.00,0.00"/>
    <path d="M 30.36,0.00 A 13.64,13.64 0 0 1 57.64,0.00"/>
    <path d="M 38.28,0.00 A 5.72,5.72 0 0 1 49.72,0.00"/>
    <path d="M 66.00,0.00 A 22.00,22.00 0 0 1 110.00,0.00"/>
    <path d="M 74.36,0.00 A 13.64,13.64 0 0 1 101.64,0.00"/>
    <path d="M 82.28,0.00 A 5.72,5.72 0 0 1 93.72,0.00"/>
    <path d="M -44.00,22.00 A 22.00,22.00 0 0 1 0.00,22.00"/>
    <path d="M -35.64,22.00 A 13.64,13.64 0 0 1 -8.36,22.00"/>
    <path d="M -27.72,22.00 A 5.72,5.72 0 0 1 -16.28,22.00"/>
    <path d="M 0.00,22.00 A 22.00,22.00 0 0 1 44.00,22.00"/>
    <path d="M 8.36,22.00 A 13.64,13.64 0 0 1 35.64,22.00"/>
    <path d="M 16.28,22.00 A 5.72,5.72 0 0 1 27.72,22.00"/>
    <path d="M 44.00,22.00 A 22.00,22.00 0 0 1 88.00,22.00"/>
    <path d="M 52.36,22.00 A 13.64,13.64 0 0 1 79.64,22.00"/>
    <path d="M 60.28,22.00 A 5.72,5.72 0 0 1 71.72,22.00"/>
    <path d="M -66.00,44.00 A 22.00,22.00 0 0 1 -22.00,44.00"/>
    <path d="M -57.64,44.00 A 13.64,13.64 0 0 1 -30.36,44.00"/>
    <path d="M -49.72,44.00 A 5.72,5.72 0 0 1 -38.28,44.00"/>
    <path d="M -22.00,44.00 A 22.00,22.00 0 0 1 22.00,44.00"/>
    <path d="M -13.64,44.00 A 13.64,13.64 0 0 1 13.64,44.00"/>
    <path d="M -5.72,44.00 A 5.72,5.72 0 0 1 5.72,44.00"/>
    <path d="M 22.00,44.00 A 22.00,22.00 0 0 1 66.00,44.00"/>
    <path d="M 30.36,44.00 A 13.64,13.64 0 0 1 57.64,44.00"/>
    <path d="M 38.28,44.00 A 5.72,5.72 0 0 1 49.72,44.00"/>
    <path d="M 66.00,44.00 A 22.00,22.00 0 0 1 110.00,44.00"/>
    <path d="M 74.36,44.00 A 13.64,13.64 0 0 1 101.64,44.00"/>
    <path d="M 82.28,44.00 A 5.72,5.72 0 0 1 93.72,44.00"/>
    <path d="M -44.00,66.00 A 22.00,22.00 0 0 1 0.00,66.00"/>
    <path d="M -35.64,66.00 A 13.64,13.64 0 0 1 -8.36,66.00"/>
    <path d="M -27.72,66.00 A 5.72,5.72 0 0 1 -16.28,66.00"/>
    <path d="M 0.00,66.00 A 22.00,22.00 0 0 1 44.00,66.00"/>
    <path d="M 8.36,66.00 A 13.64,13.64 0 0 1 35.64,66.00"/>
    <path d="M 16.28,66.00 A 5.72,5.72 0 0 1 27.72,66.00"/>
    <path d="M 44.00,66.00 A 22.00,22.00 0 0 1 88.00,66.00"/>
    <path d="M 52.36,66.00 A 13.64,13.64 0 0 1 79.64,66.00"/>
    <path d="M 60.28,66.00 A 5.72,5.72 0 0 1 71.72,66.00"/>
  </g>
</svg>
